<svg width="50" height="50" viewBox="0 0 50 50" fill="none" xmlns="http://www.w3.org/2000/svg">
<path d="M25 35.4167C23.8949 35.4167 22.8351 34.9777 22.0537 34.1963C21.2723 33.4149 20.8333 32.3551 20.8333 31.25C20.8333 28.9375 22.6875 27.0834 25 27.0834C26.105 27.0834 27.1649 27.5224 27.9463 28.3038C28.7277 29.0852 29.1666 30.145 29.1666 31.25C29.1666 32.3551 28.7277 33.4149 27.9463 34.1963C27.1649 34.9777 26.105 35.4167 25 35.4167ZM37.5 41.6667V20.8334H12.5V41.6667H37.5ZM37.5 16.6667C38.605 16.6667 39.6649 17.1057 40.4463 17.8871C41.2277 18.6685 41.6666 19.7283 41.6666 20.8334V41.6667C41.6666 42.7718 41.2277 43.8316 40.4463 44.613C39.6649 45.3944 38.605 45.8334 37.5 45.8334H12.5C11.3949 45.8334 10.3351 45.3944 9.5537 44.613C8.7723 43.8316 8.33331 42.7718 8.33331 41.6667V20.8334C8.33331 18.5209 10.1875 16.6667 12.5 16.6667H14.5833V12.5C14.5833 9.73737 15.6808 7.08785 17.6343 5.13435C19.5878 3.18084 22.2373 2.08337 25 2.08337C26.3679 2.08337 27.7225 2.35281 28.9863 2.8763C30.2501 3.39978 31.3984 4.16707 32.3657 5.13435C33.333 6.10162 34.1002 7.24995 34.6237 8.51375C35.1472 9.77756 35.4166 11.1321 35.4166 12.5V16.6667H37.5ZM25 6.25004C23.3424 6.25004 21.7527 6.90852 20.5806 8.08062C19.4085 9.25273 18.75 10.8424 18.75 12.5V16.6667H31.25V12.5C31.25 10.8424 30.5915 9.25273 29.4194 8.08062C28.2473 6.90852 26.6576 6.25004 25 6.25004Z" fill="black" fill-opacity="0.5"/>
</svg>
